<svg width="0" height="0" class="hidden"><symbol xmlns="http://www.w3.org/2000/svg" viewBox="0 0 16 16" id="login-icon"><path d="M7 2h7v12H7v2h9V0H7v2z"/><path d="M7 9H0V7h7V4l4 4-4 4V9z"/></symbol><symbol xmlns="http://www.w3.org/2000/svg" viewBox="0 0 18 39" id="fb-icon"><path d="M4.659 39V22.004H0v-7.646h4.765V8.031S4.983.061 11.095 0h6.803v7.503h-4.22s-1.782 0-1.782 2.242v4.747H18l-.733 7.64h-5.264V39H4.659z"/></symbol><symbol xmlns="http://www.w3.org/2000/svg" viewBox="0 0 36 36" id="instagram-icon"><path d="M36 0H0v36h36V0zM18 11.4a6.6 6.6 0 110 13.2 6.6 6.6 0 010-13.2zm13.2 19.8H4.8V15h2.83a10.81 10.81 0 00-.43 3c0 5.964 4.837 10.8 10.8 10.8 5.966 0 10.8-4.836 10.8-10.8a10.81 10.81 0 00-.43-3h2.83v16.2zm0-25.19v4.79s-.536-.013-1.18-.002v.002H25.2v-6H30l.02.004s1.18.006 1.18-.004l-.002 1.21h.002z"/></symbol><symbol xmlns="http://www.w3.org/2000/svg" viewBox="0 0 23 26" id="vk-icon"><path d="M21.058 23.167C22.352 21.649 23 19.926 23 17.995c0-3.225-2.62-5.478-6.29-6.291 1.58-.394 2.766-.827 3.563-1.875.796-1.048 1.194-2.22 1.194-3.515 0-1.778-.686-2.854-2.057-4.238C18.04.692 15.86 0 12.868 0H0v26h13.5c4.238 0 6.263-1.316 7.558-2.833zM7.156 5.142h3.22c1.938 0 2.907.662 2.907 2.11 0 .532-.207 1.536-.622 2.005-.416.47-1.13.705-2.14.705H7.156v-4.82zM7.118 20.21v-4.724h3.946c1.274 0 2.15.25 2.628.752.477.502.717 1.05.717 1.648 0 .597-.247 1.133-.738 1.61-.492.476-1.264.714-2.316.714H7.118z"/></symbol></svg>